<svg width="18" height="16" viewBox="0 0 18 16" fill="none" xmlns="http://www.w3.org/2000/svg">
<path d="M16.0833 15.1667H1.91666C1.62624 15.1667 1.38541 14.94 1.38541 14.6667C1.38541 14.3934 1.62624 14.1667 1.91666 14.1667H16.0833C16.3737 14.1667 16.6146 14.3934 16.6146 14.6667C16.6146 14.94 16.3737 15.1667 16.0833 15.1667Z" fill="#8A8A8A"/>
<path d="M15.2971 15.1667C15.0067 15.1667 14.7658 14.94 14.7658 14.6667V8.66669C14.7658 7.84002 13.9442 7.16669 12.9383 7.16669H5.06166C4.05583 7.16669 3.23416 7.84002 3.23416 8.66669V14.6667C3.23416 14.94 2.99333 15.1667 2.70291 15.1667C2.41249 15.1667 2.17166 14.94 2.17166 14.6667V8.66669C2.17166 7.28669 3.46791 6.16669 5.06166 6.16669H12.9312C14.525 6.16669 15.8212 7.28669 15.8212 8.66669V14.6667C15.8283 14.94 15.5875 15.1667 15.2971 15.1667Z" fill="#8A8A8A"/>
<path d="M13.5617 7.16665C13.2712 7.16665 13.0304 6.93998 13.0304 6.66665V4.77998C13.0304 4.25998 12.4992 3.83331 11.8546 3.83331H6.15249C5.50082 3.83331 4.97666 4.25998 4.97666 4.77998V6.66665C4.97666 6.93998 4.73582 7.16665 4.44541 7.16665C4.15499 7.16665 3.90707 6.93998 3.90707 6.66665V4.77998C3.90707 3.70665 4.91291 2.83331 6.14541 2.83331H11.8475C13.08 2.83331 14.0858 3.70665 14.0858 4.77998V6.66665C14.0929 6.93998 13.8521 7.16665 13.5617 7.16665Z" fill="#8A8A8A"/>
<path d="M12.7754 11.8334C11.9537 11.8334 11.2879 11.2067 11.2879 10.4334V10.2267C11.2879 10.0067 11.0967 9.82669 10.8629 9.82669C10.6292 9.82669 10.4379 10.0067 10.4379 10.2267V10.4334C10.4379 11.2067 9.77208 11.8334 8.95041 11.8334C8.12875 11.8334 7.46291 11.2067 7.46291 10.4334V10.2267C7.46291 10.0067 7.27166 9.82669 7.03791 9.82669C6.80416 9.82669 6.61291 10.0067 6.61291 10.2267V10.4334C6.61291 11.2067 5.94708 11.8334 5.12541 11.8334C4.30375 11.8334 3.63791 11.2067 3.63791 10.4334V10.2134C3.63791 10 3.45375 9.82002 3.22 9.81335H2.95791C2.6675 9.80669 2.42666 9.58002 2.43375 9.30669C2.44083 9.03335 2.67458 8.81335 2.965 8.81335H2.97208H3.23416C4.04166 8.82669 4.70041 9.45335 4.70041 10.2134V10.4334C4.70041 10.6534 4.89166 10.8334 5.12541 10.8334C5.35916 10.8334 5.55041 10.6534 5.55041 10.4334V10.2267C5.55041 9.45335 6.21625 8.82669 7.03791 8.82669C7.85958 8.82669 8.52541 9.45335 8.52541 10.2267V10.4334C8.52541 10.6534 8.71666 10.8334 8.95041 10.8334C9.18416 10.8334 9.37541 10.6534 9.37541 10.4334V10.2267C9.37541 9.45335 10.0412 8.82669 10.8629 8.82669C11.6846 8.82669 12.3504 9.45335 12.3504 10.2267V10.4334C12.3504 10.6534 12.5417 10.8334 12.7754 10.8334C13.0092 10.8334 13.2004 10.6534 13.2004 10.4334V10.2267C13.2004 9.45335 13.8662 8.82669 14.6879 8.82669H15.0067C15.2971 8.82669 15.5379 9.05335 15.5379 9.32669C15.5379 9.60002 15.2971 9.82669 15.0067 9.82669H14.6879C14.4542 9.82669 14.2629 10.0067 14.2629 10.2267V10.4334C14.2629 11.2067 13.5971 11.8334 12.7754 11.8334Z" fill="#8A8A8A"/>
<path d="M6.16666 3.83333C5.87624 3.83333 5.63541 3.60667 5.63541 3.33333V2C5.63541 1.72667 5.87624 1.5 6.16666 1.5C6.45707 1.5 6.69791 1.72667 6.69791 2V3.33333C6.69791 3.60667 6.45707 3.83333 6.16666 3.83333Z" fill="#8A8A8A"/>
<path d="M11.8333 3.83333C11.5429 3.83333 11.3021 3.60667 11.3021 3.33333V2C11.3021 1.72667 11.5429 1.5 11.8333 1.5C12.1238 1.5 12.3646 1.72667 12.3646 2V3.33333C12.3646 3.60667 12.1238 3.83333 11.8333 3.83333Z" fill="#8A8A8A"/>
<path d="M9 3.83331C8.70958 3.83331 8.46875 3.60665 8.46875 3.33331V1.33331C8.46875 1.05998 8.70958 0.833313 9 0.833313C9.29042 0.833313 9.53125 1.05998 9.53125 1.33331V3.33331C9.53125 3.60665 9.29042 3.83331 9 3.83331Z" fill="#8A8A8A"/>
</svg>
