<svg width="28" height="22" viewBox="0 0 28 22" fill="none" xmlns="http://www.w3.org/2000/svg">
<path d="M5.91612 17.8307V3.78692C5.91612 3.63438 5.94236 3.48424 5.96307 3.33714L1.93714 4.64767C1.0033 4.95097 0.491298 5.96337 0.794695 6.89713L5.13625 20.2535C5.38064 21.0058 6.08589 21.4867 6.8389 21.4867C7.02054 21.4867 7.20567 21.4586 7.38722 21.3997L8.52941 21.0238C7.05071 20.7285 5.91612 19.3922 5.91612 17.8307Z" fill="white"/>
<path d="M8.83742 15.7353L13.177 2.38172C13.2208 2.24676 13.2732 2.08341 13.3329 1.99415H9.15786C8.176 1.99415 7.34293 2.80482 7.34293 3.78669V17.8304C7.34293 18.8123 8.176 19.6678 9.15786 19.6678H10.5833C9.1019 18.9538 8.32533 17.3114 8.83742 15.7353Z" fill="white"/>
<path d="M25.9544 4.64805L16.7861 1.66915C16.6045 1.61006 16.4199 1.58212 16.2382 1.58212C15.4852 1.58212 14.7809 2.06297 14.5365 2.81517L10.1969 16.1715C9.89354 17.1055 10.4093 18.1177 11.3431 18.4212L20.5114 21.4001C20.6929 21.459 20.8775 21.4871 21.0593 21.4871C21.8123 21.4871 22.5165 21.0061 22.7609 20.2539L27.1006 6.89751C27.404 5.96375 26.8883 4.95135 25.9544 4.64805ZM17.3846 15.0908C13.061 9.8407 15.5797 7.23152 17.1738 7.23866C18.5171 7.24509 19.064 8.2083 19.2973 9.19945C20.0157 8.41039 21.0769 8.07602 22.1675 8.86017C23.4617 9.79062 23.9676 13.3814 17.3846 15.0908Z" fill="white"/>
</svg>
