<svg width="15" height="14" viewBox="0 0 15 14" fill="none" xmlns="http://www.w3.org/2000/svg">
<path fill-rule="evenodd" clip-rule="evenodd" d="M8.99998 1C8.86737 1 8.7402 0.947322 8.64643 0.853553C8.55266 0.759785 8.49998 0.632608 8.49998 0.5C8.49998 0.367392 8.55266 0.240215 8.64643 0.146447C8.7402 0.0526784 8.86737 0 8.99998 0H14C14.1326 0 14.2598 0.0526784 14.3535 0.146447C14.4473 0.240215 14.5 0.367392 14.5 0.5V5.5C14.5 5.63261 14.4473 5.75979 14.3535 5.85355C14.2598 5.94732 14.1326 6 14 6C13.8674 6 13.7402 5.94732 13.6464 5.85355C13.5527 5.75979 13.5 5.63261 13.5 5.5V1.707L9.37098 5.836C10.1828 6.82919 10.5818 8.0964 10.4856 9.37554C10.3893 10.6547 9.80511 11.8479 8.8538 12.7084C7.90249 13.5689 6.65684 14.0309 5.37449 13.9987C4.09214 13.9666 2.87118 13.4429 1.96413 12.5359C1.05709 11.6288 0.533347 10.4078 0.501233 9.12549C0.469119 7.84314 0.931087 6.5975 1.79159 5.64619C2.6521 4.69488 3.84531 4.11068 5.12445 4.01442C6.40359 3.91815 7.67079 4.31719 8.66398 5.129L12.793 1H8.99998ZM5.49998 5C4.43912 5 3.4217 5.42143 2.67156 6.17157C1.92141 6.92172 1.49998 7.93913 1.49998 9C1.49998 10.0609 1.92141 11.0783 2.67156 11.8284C3.4217 12.5786 4.43912 13 5.49998 13C6.56085 13 7.57827 12.5786 8.32841 11.8284C9.07856 11.0783 9.49998 10.0609 9.49998 9C9.49998 7.93913 9.07856 6.92172 8.32841 6.17157C7.57827 5.42143 6.56085 5 5.49998 5Z" fill="#8A8A8A"/>
</svg>
