<svg width="17" height="16" viewBox="0 0 17 16" fill="none" xmlns="http://www.w3.org/2000/svg">
<path fill-rule="evenodd" clip-rule="evenodd" d="M9.99998 2C9.86737 2 9.7402 1.94732 9.64643 1.85355C9.55266 1.75979 9.49998 1.63261 9.49998 1.5C9.49998 1.36739 9.55266 1.24021 9.64643 1.14645C9.7402 1.05268 9.86737 1 9.99998 1H15C15.1326 1 15.2598 1.05268 15.3535 1.14645C15.4473 1.24021 15.5 1.36739 15.5 1.5V6.5C15.5 6.63261 15.4473 6.75979 15.3535 6.85355C15.2598 6.94732 15.1326 7 15 7C14.8674 7 14.7402 6.94732 14.6464 6.85355C14.5527 6.75979 14.5 6.63261 14.5 6.5V2.707L10.371 6.836C11.1828 7.82919 11.5818 9.0964 11.4856 10.3755C11.3893 11.6547 10.8051 12.8479 9.8538 13.7084C8.90249 14.5689 7.65684 15.0309 6.37449 14.9987C5.09214 14.9666 3.87118 14.4429 2.96413 13.5359C2.05709 12.6288 1.53335 11.4078 1.50123 10.1255C1.46912 8.84314 1.93109 7.5975 2.79159 6.64619C3.6521 5.69488 4.84531 5.11068 6.12445 5.01442C7.40359 4.91815 8.67079 5.31719 9.66398 6.129L13.793 2H9.99998ZM6.49998 6C5.43912 6 4.4217 6.42143 3.67156 7.17157C2.92141 7.92172 2.49998 8.93913 2.49998 10C2.49998 11.0609 2.92141 12.0783 3.67156 12.8284C4.4217 13.5786 5.43912 14 6.49998 14C7.56085 14 8.57827 13.5786 9.32841 12.8284C10.0786 12.0783 10.5 11.0609 10.5 10C10.5 8.93913 10.0786 7.92172 9.32841 7.17157C8.57827 6.42143 7.56085 6 6.49998 6Z" fill="#8A8A8A"/>
</svg>
