<svg width="28" height="22" viewBox="0 0 28 22" fill="none" xmlns="http://www.w3.org/2000/svg">
<path d="M5.91612 17.8307V3.78694C5.91612 3.6344 5.94236 3.48426 5.96307 3.33716L1.93714 4.64768C1.0033 4.95099 0.491298 5.96339 0.794695 6.89714L5.13625 20.2535C5.38064 21.0058 6.08589 21.4867 6.8389 21.4867C7.02054 21.4867 7.20567 21.4586 7.38722 21.3997L8.52941 21.0238C7.05071 20.7285 5.91612 19.3922 5.91612 17.8307Z" fill="white"/>
<path d="M8.83742 15.7353L13.177 2.38171C13.2208 2.24675 13.2732 2.0834 13.3329 1.99414H9.15786C8.176 1.99414 7.34293 2.80481 7.34293 3.78667V17.8304C7.34293 18.8123 8.176 19.6678 9.15786 19.6678H10.5833C9.1019 18.9538 8.32533 17.3114 8.83742 15.7353Z" fill="white"/>
<path d="M25.9544 4.64796L16.7861 1.66906C16.6045 1.60997 16.4199 1.58203 16.2382 1.58203C15.4852 1.58203 14.7809 2.06288 14.5365 2.81508L10.197 16.1714C9.89356 17.1054 10.4093 18.1176 11.3432 18.4211L20.5114 21.4C20.6929 21.4589 20.8775 21.487 21.0593 21.487C21.8123 21.487 22.5165 21.006 22.7609 20.2538L27.1006 6.89742C27.404 5.96366 26.8883 4.95127 25.9544 4.64796ZM17.3846 15.0907C13.061 9.84061 15.5797 7.23143 17.1738 7.23857C18.5171 7.245 19.064 8.20821 19.2973 9.19936C20.0157 8.4103 21.0769 8.07593 22.1675 8.86008C23.4617 9.79054 23.9677 13.3813 17.3846 15.0907Z" fill="white"/>
</svg>
