<svg width="17" height="16" viewBox="0 0 17 16" fill="none" xmlns="http://www.w3.org/2000/svg">
<path d="M10.5 5.66666C11.8333 5.66666 14.196 5.62933 14.4863 7.88C14.639 9.064 13.5793 10.8913 8.5 14.3333" stroke="#8A8A8A" stroke-width="1.33333" stroke-linecap="round" stroke-linejoin="round"/>
<path d="M5.83333 3.66667C5.83333 3.84348 5.90357 4.01305 6.02859 4.13807C6.15361 4.2631 6.32318 4.33333 6.5 4.33333C6.67681 4.33333 6.84637 4.2631 6.9714 4.13807C7.09642 4.01305 7.16666 3.84348 7.16666 3.66667H5.83333ZM1.83333 3.66667C1.83333 3.84348 1.90357 4.01305 2.02859 4.13807C2.15361 4.2631 2.32318 4.33333 2.49999 4.33333C2.67681 4.33333 2.84638 4.2631 2.9714 4.13807C3.09642 4.01305 3.16666 3.84348 3.16666 3.66667H1.83333ZM3.16666 3.66667C3.16666 3.31304 3.30714 2.97391 3.55719 2.72386C3.80723 2.47381 4.14637 2.33333 4.49999 2.33333V1C3.79275 1 3.11447 1.28095 2.61438 1.78105C2.11428 2.28115 1.83333 2.95942 1.83333 3.66667H3.16666ZM4.49999 2.33333C4.85362 2.33333 5.19276 2.47381 5.4428 2.72386C5.69285 2.97391 5.83333 3.31304 5.83333 3.66667H7.16666C7.16666 2.95942 6.88571 2.28115 6.38561 1.78105C5.88552 1.28095 5.20724 1 4.49999 1V2.33333Z" fill="#8A8A8A"/>
<path d="M9.83333 3.66667C9.83333 3.84348 9.90357 4.01305 10.0286 4.13807C10.1536 4.2631 10.3232 4.33333 10.5 4.33333C10.6768 4.33333 10.8464 4.2631 10.9714 4.13807C11.0964 4.01305 11.1667 3.84348 11.1667 3.66667H9.83333ZM5.83333 3.66667C5.83333 3.84348 5.90357 4.01305 6.02859 4.13807C6.15361 4.2631 6.32318 4.33333 6.49999 4.33333C6.67681 4.33333 6.84638 4.2631 6.9714 4.13807C7.09642 4.01305 7.16666 3.84348 7.16666 3.66667H5.83333ZM7.16666 3.66667C7.16666 3.31304 7.30714 2.97391 7.55719 2.72386C7.80723 2.47381 8.14637 2.33333 8.49999 2.33333V1C7.79275 1 7.11447 1.28095 6.61438 1.78105C6.11428 2.28115 5.83333 2.95942 5.83333 3.66667H7.16666ZM8.49999 2.33333C8.85362 2.33333 9.19276 2.47381 9.4428 2.72386C9.69285 2.97391 9.83333 3.31304 9.83333 3.66667H11.1667C11.1667 2.95942 10.8857 2.28115 10.3856 1.78105C9.88552 1.28095 9.20724 1 8.49999 1V2.33333Z" fill="#8A8A8A"/>
<path d="M2.5 3.66669V9.66669M6.5 3.66669V9.66669" stroke="#8A8A8A" stroke-width="1.33333" stroke-linecap="round" stroke-linejoin="round"/>
<path d="M10.5 3.66669V9.66669C10.5 11.3334 11.3333 13 14.5 13" stroke="#8A8A8A" stroke-width="1.33333" stroke-linecap="round"/>
</svg>
