<svg width="15" height="14" viewBox="0 0 15 14" fill="none" xmlns="http://www.w3.org/2000/svg">
<path d="M12.8333 10.3333C12.8333 10.8637 12.6226 11.3725 12.2475 11.7475C11.8725 12.1226 11.3638 12.3333 10.8333 12.3333C10.3114 12.307 9.81781 12.0879 9.44828 11.7184C9.07875 11.3488 8.8596 10.8552 8.83333 10.3333C8.94 9.25998 9.16666 8.19998 9.5 7.17331C9.86 6.03331 10.08 4.85998 10.1667 3.66665C10.1437 2.78982 9.78519 1.95523 9.16497 1.33501C8.54475 0.714789 7.71016 0.356239 6.83333 0.333313C5.95651 0.356239 5.12192 0.714789 4.50169 1.33501C3.88147 1.95523 3.52292 2.78982 3.5 3.66665C3.6 4.68665 3.83333 5.68665 4.16666 6.66665L4.30666 7.13331C2.9 6.68665 1.40666 7.46665 0.959998 8.86665C0.499998 10.2733 1.28666 11.7733 2.69333 12.22C4.1 12.6666 5.59333 11.8866 6.04 10.48C6.12666 10.22 6.16666 9.93998 6.16666 9.66665C6.06 8.51331 5.83333 7.37331 5.44 6.27998C5.14466 5.43314 4.94127 4.55699 4.83333 3.66665C4.8596 3.14471 5.07875 2.65113 5.44828 2.28159C5.81781 1.91206 6.3114 1.69292 6.83333 1.66665C7.91333 1.71998 8.78 2.58665 8.83333 3.66665C8.72497 4.74082 8.50146 5.80024 8.16666 6.82665C7.80666 7.96665 7.58666 9.13998 7.5 10.3333C7.52292 11.2101 7.88147 12.0447 8.50169 12.6649C9.12191 13.2852 9.95651 13.6437 10.8333 13.6666C11.7174 13.6666 12.5652 13.3155 13.1904 12.6903C13.8155 12.0652 14.1667 11.2174 14.1667 10.3333H12.8333ZM3.5 11C3.14638 11 2.80724 10.8595 2.55719 10.6095C2.30714 10.3594 2.16666 10.0203 2.16666 9.66665C2.16666 9.31302 2.30714 8.97389 2.55719 8.72384C2.80724 8.47379 3.14638 8.33331 3.5 8.33331C3.85362 8.33331 4.19276 8.47379 4.44281 8.72384C4.69286 8.97389 4.83333 9.31302 4.83333 9.66665C4.83333 10.0203 4.69286 10.3594 4.44281 10.6095C4.19276 10.8595 3.85362 11 3.5 11Z" fill="#8A8A8A"/>
</svg>
