<svg width="17" height="18" viewBox="0 0 17 18" fill="none" xmlns="http://www.w3.org/2000/svg">
<path fill-rule="evenodd" clip-rule="evenodd" d="M8.49998 2.50001C5.68332 2.50001 3.39998 4.78336 3.39998 7.60001C3.39998 8.02803 3.54798 8.59188 3.85708 9.27223C4.16105 9.9413 4.59234 10.6618 5.09041 11.3855C6.08649 12.8328 7.29895 14.2204 8.14207 15.1301C8.34144 15.3452 8.65852 15.3452 8.85788 15.1301C9.701 14.2204 10.9135 12.8328 11.9095 11.3855C12.4076 10.6618 12.8389 9.9413 13.1429 9.27223C13.452 8.59188 13.6 8.02803 13.6 7.60001C13.6 4.78336 11.3166 2.50001 8.49998 2.50001ZM1.59998 7.60001C1.59998 3.78925 4.68921 0.700012 8.49998 0.700012C12.3107 0.700012 15.4 3.78925 15.4 7.60001C15.4 8.39517 15.1392 9.22978 14.7817 10.0168C14.419 10.8151 13.9258 11.6308 13.3923 12.4059C12.3254 13.9562 11.0468 15.4163 10.1781 16.3537C9.26637 17.3374 7.73359 17.3374 6.82189 16.3537C5.95313 15.4163 4.67459 13.9562 3.60764 12.4059C3.07419 11.6308 2.58096 10.8151 2.21828 10.0168C1.86074 9.22978 1.59998 8.39517 1.59998 7.60001ZM8.49999 5.50001C7.61634 5.50001 6.89999 6.21636 6.89999 7.10001C6.89999 7.98367 7.61634 8.70001 8.49999 8.70001C9.38365 8.70001 10.1 7.98367 10.1 7.10001C10.1 6.21636 9.38365 5.50001 8.49999 5.50001ZM5.09999 7.10001C5.09999 5.22224 6.62222 3.70001 8.49999 3.70001C10.3778 3.70001 11.9 5.22224 11.9 7.10001C11.9 8.97778 10.3778 10.5 8.49999 10.5C6.62222 10.5 5.09999 8.97778 5.09999 7.10001Z" fill="#8A8A8A"/>
<circle cx="8.5" cy="7.09998" r="2.5" stroke="#8A8A8A" stroke-width="1.5"/>
</svg>
