<svg width="20" height="20" viewBox="0 0 20 20" fill="none" xmlns="http://www.w3.org/2000/svg">
<path d="M19.15 0.859998C18.768 0.47056 18.2835 0.197216 17.7526 0.0715727C17.2217 -0.0540706 16.6661 -0.0268806 16.15 0.149999L2 4.88C1.42932 5.0668 0.930692 5.42615 0.572957 5.90843C0.215221 6.39072 0.0160195 6.97217 0.00284939 7.5725C-0.0103207 8.17284 0.163191 8.76246 0.499431 9.25997C0.835672 9.75748 1.31806 10.1384 1.88 10.35L7.12 12.35C7.23932 12.3956 7.34796 12.4653 7.43915 12.5548C7.53033 12.6443 7.60211 12.7516 7.65 12.87L9.65 18.12C9.85359 18.674 10.223 19.1517 10.708 19.4882C11.1929 19.8246 11.7698 20.0033 12.36 20H12.43C13.031 19.9891 13.6136 19.7903 14.096 19.4317C14.5783 19.073 14.9364 18.5724 15.12 18L19.85 3.83C20.022 3.31894 20.0476 2.76994 19.9239 2.24508C19.8002 1.72023 19.5321 1.24045 19.15 0.859998ZM18 3.2L13.22 17.38C13.1645 17.5595 13.053 17.7165 12.9019 17.828C12.7507 17.9396 12.5679 17.9998 12.38 18C12.1933 18.0031 12.01 17.9492 11.8546 17.8456C11.6992 17.742 11.579 17.5936 11.51 17.42L9.51 12.17C9.36501 11.7885 9.14139 11.4418 8.85368 11.1524C8.56598 10.8629 8.22061 10.6373 7.84 10.49L2.59 8.49C2.4129 8.4251 2.26066 8.3062 2.15479 8.15009C2.04892 7.99398 1.99477 7.80855 2 7.62C2.00016 7.43214 2.06042 7.24927 2.17198 7.09812C2.28354 6.94698 2.44053 6.8355 2.62 6.78L16.8 2.05C16.9628 1.98365 17.1413 1.96587 17.314 1.99882C17.4867 2.03178 17.6462 2.11405 17.7731 2.23569C17.9 2.35733 17.989 2.51313 18.0293 2.68426C18.0695 2.85539 18.0594 3.03452 18 3.2Z" fill="white"/>
</svg>
