<svg width="24" height="24" viewBox="0 0 24 24" fill="none" xmlns="http://www.w3.org/2000/svg">
<path d="M21.15 2.86C20.768 2.47056 20.2835 2.19722 19.7526 2.07157C19.2217 1.94593 18.6661 1.97312 18.15 2.15L4 6.88C3.42932 7.0668 2.93069 7.42615 2.57296 7.90843C2.21522 8.39072 2.01602 8.97217 2.00285 9.5725C1.98968 10.1728 2.16319 10.7625 2.49943 11.26C2.83567 11.7575 3.31806 12.1384 3.88 12.35L9.12 14.35C9.23932 14.3956 9.34796 14.4653 9.43915 14.5548C9.53033 14.6443 9.60211 14.7516 9.65 14.87L11.65 20.12C11.8536 20.674 12.223 21.1517 12.708 21.4882C13.1929 21.8246 13.7698 22.0033 14.36 22H14.43C15.031 21.9891 15.6136 21.7903 16.096 21.4317C16.5783 21.073 16.9364 20.5724 17.12 20L21.85 5.83C22.022 5.31894 22.0476 4.76994 21.9239 4.24508C21.8002 3.72023 21.5321 3.24045 21.15 2.86ZM20 5.2L15.22 19.38C15.1645 19.5595 15.053 19.7165 14.9019 19.828C14.7507 19.9396 14.5679 19.9998 14.38 20C14.1933 20.0031 14.01 19.9492 13.8546 19.8456C13.6992 19.742 13.579 19.5936 13.51 19.42L11.51 14.17C11.365 13.7885 11.1414 13.4418 10.8537 13.1524C10.566 12.8629 10.2206 12.6373 9.84 12.49L4.59 10.49C4.4129 10.4251 4.26066 10.3062 4.15479 10.1501C4.04892 9.99398 3.99477 9.80855 4 9.62C4.00016 9.43214 4.06042 9.24927 4.17198 9.09812C4.28354 8.94698 4.44053 8.8355 4.62 8.78L18.8 4.05C18.9628 3.98365 19.1413 3.96587 19.314 3.99882C19.4867 4.03178 19.6462 4.11405 19.7731 4.23569C19.9 4.35733 19.989 4.51313 20.0293 4.68426C20.0695 4.85539 20.0594 5.03452 20 5.2Z" fill="white"/>
</svg>
