<svg width="52" height="51" viewBox="0 0 52 51" fill="none" xmlns="http://www.w3.org/2000/svg">
<g filter="url(#filter0_d_4439_13920)">
<path d="M37.3613 25.5C37.3613 31.299 32.6603 36 26.8613 36C21.0623 36 16.3613 31.299 16.3613 25.5C16.3613 19.701 21.0623 15 26.8613 15C32.6603 15 37.3613 19.701 37.3613 25.5Z" fill="url(#paint0_linear_4439_13920)"/>
</g>
<path d="M29.0824 21.3247C28.2057 21.3247 27.421 21.751 26.9318 22.4049C26.4425 21.751 25.6579 21.3247 24.7811 21.3247C23.2941 21.3247 22.088 22.5356 22.088 24.0324C22.088 24.6088 22.18 25.1416 22.3399 25.6356C23.1052 28.0575 25.4641 29.5058 26.6315 29.903C26.7961 29.9611 27.0674 29.9611 27.2321 29.903C28.3994 29.5058 30.7583 28.0575 31.5236 25.6356C31.6835 25.1416 31.7755 24.6088 31.7755 24.0324C31.7755 22.5356 30.5694 21.3247 29.0824 21.3247Z" fill="white"/>
<defs>
<filter id="filter0_d_4439_13920" x="0.986329" y="0.750001" width="50.25" height="50.25" filterUnits="userSpaceOnUse" color-interpolation-filters="sRGB">
<feFlood flood-opacity="0" result="BackgroundImageFix"/>
<feColorMatrix in="SourceAlpha" type="matrix" values="0 0 0 0 0 0 0 0 0 0 0 0 0 0 0 0 0 0 127 0" result="hardAlpha"/>
<feOffset dx="-0.75" dy="0.375"/>
<feGaussianBlur stdDeviation="7.3125"/>
<feColorMatrix type="matrix" values="0 0 0 0 0 0 0 0 0 0 0 0 0 0 0 0 0 0 0.1 0"/>
<feBlend mode="normal" in2="BackgroundImageFix" result="effect1_dropShadow_4439_13920"/>
<feBlend mode="normal" in="SourceGraphic" in2="effect1_dropShadow_4439_13920" result="shape"/>
</filter>
<linearGradient id="paint0_linear_4439_13920" x1="37.3613" y1="36.051" x2="12.6278" y2="5.1212" gradientUnits="userSpaceOnUse">
<stop stop-color="#D71D38"/>
<stop offset="1" stop-color="#FF8E9F"/>
</linearGradient>
</defs>
</svg>
