<svg width="17" height="16" viewBox="0 0 17 16" fill="none" xmlns="http://www.w3.org/2000/svg">
<path d="M13.8333 11.3333C13.8333 11.8637 13.6226 12.3725 13.2475 12.7475C12.8725 13.1226 12.3638 13.3333 11.8333 13.3333C11.3114 13.307 10.8178 13.0879 10.4483 12.7184C10.0787 12.3488 9.8596 11.8552 9.83333 11.3333C9.94 10.26 10.1667 9.19998 10.5 8.17331C10.86 7.03331 11.08 5.85998 11.1667 4.66665C11.1437 3.78982 10.7852 2.95523 10.165 2.33501C9.54475 1.71479 8.71016 1.35624 7.83333 1.33331C6.95651 1.35624 6.12192 1.71479 5.50169 2.33501C4.88147 2.95523 4.52292 3.78982 4.5 4.66665C4.6 5.68665 4.83333 6.68665 5.16666 7.66665L5.30666 8.13331C3.9 7.68665 2.40666 8.46665 1.96 9.86665C1.5 11.2733 2.28666 12.7733 3.69333 13.22C5.1 13.6666 6.59333 12.8866 7.04 11.48C7.12666 11.22 7.16666 10.94 7.16666 10.6666C7.06 9.51331 6.83333 8.37331 6.44 7.27998C6.14466 6.43314 5.94127 5.55699 5.83333 4.66665C5.8596 4.14471 6.07875 3.65113 6.44828 3.28159C6.81781 2.91206 7.3114 2.69292 7.83333 2.66665C8.91333 2.71998 9.78 3.58665 9.83333 4.66665C9.72497 5.74082 9.50146 6.80024 9.16666 7.82665C8.80666 8.96665 8.58666 10.14 8.5 11.3333C8.52292 12.2101 8.88147 13.0447 9.50169 13.6649C10.1219 14.2852 10.9565 14.6437 11.8333 14.6666C12.7174 14.6666 13.5652 14.3155 14.1904 13.6903C14.8155 13.0652 15.1667 12.2174 15.1667 11.3333H13.8333ZM4.5 12C4.14638 12 3.80724 11.8595 3.55719 11.6095C3.30714 11.3594 3.16666 11.0203 3.16666 10.6666C3.16666 10.313 3.30714 9.97389 3.55719 9.72384C3.80724 9.47379 4.14638 9.33331 4.5 9.33331C4.85362 9.33331 5.19276 9.47379 5.44281 9.72384C5.69286 9.97389 5.83333 10.313 5.83333 10.6666C5.83333 11.0203 5.69286 11.3594 5.44281 11.6095C5.19276 11.8595 4.85362 12 4.5 12Z" fill="#8A8A8A"/>
</svg>
