<svg width="24" height="26" viewBox="0 0 24 26" fill="none" xmlns="http://www.w3.org/2000/svg">
<path d="M15.5637 4.81415L13.6077 0.522766L0.0820618 6.68813L8.71416 25.6239L8.73084 25.6152V25.6239H23.5958V4.81415H15.5637ZM1.2436 7.35778L13.3523 1.83811L14.709 4.81415H8.73157V23.784L1.2436 7.35778Z" fill="white"/>
<path d="M20.5453 15.6487C20.5453 17.9629 18.6671 19.8411 16.3529 19.8411C14.0387 19.8411 12.6258 17.5102 12.6258 17.5102M12.6258 17.5102H14.5208M12.6258 17.5102V19.6064M12.1605 15.6487C12.1605 13.3345 14.0219 11.4563 16.3529 11.4563C19.1492 11.4563 20.5453 13.7873 20.5453 13.7873M20.5453 13.7873V11.6911M20.5453 13.7873H18.6839" stroke="#155332" stroke-width="1.74648" stroke-linecap="round" stroke-linejoin="round"/>
</svg>
