<svg width="17" height="16" viewBox="0 0 17 16" fill="none" xmlns="http://www.w3.org/2000/svg">
<path d="M12.3333 3.33335L12.3333 12.6667C12.3333 14.28 11.4467 15.1667 9.83332 15.1667L7.16666 15.1667C5.55332 15.1667 4.66666 14.28 4.66666 12.6667L4.66666 3.33335C4.66666 1.72002 5.55332 0.833355 7.16666 0.833355L9.83332 0.833355C11.4467 0.833355 12.3333 1.72002 12.3333 3.33335ZM5.66666 12.6667C5.66666 13.72 6.11332 14.1667 7.16666 14.1667L9.83332 14.1667C10.8867 14.1667 11.3333 13.72 11.3333 12.6667L11.3333 3.33335C11.3333 2.28002 10.8867 1.83335 9.83332 1.83335L7.16666 1.83335C6.11332 1.83335 5.66666 2.28002 5.66666 3.33335L5.66666 12.6667Z" fill="#8A8A8A"/>
<path d="M8.99999 4C8.99999 4.27333 8.77332 4.5 8.49999 4.5L5.16666 4.5C4.89332 4.5 4.66666 4.27333 4.66666 4C4.66666 3.72667 4.89332 3.5 5.16666 3.5L8.49999 3.5C8.77332 3.5 8.99999 3.72667 8.99999 4Z" fill="#8A8A8A"/>
<path d="M8.33332 12C8.33332 12.2733 8.10666 12.5 7.83332 12.5H5.16666C4.89332 12.5 4.66666 12.2733 4.66666 12C4.66666 11.7267 4.89332 11.5 5.16666 11.5H7.83332C8.10666 11.5 8.33332 11.7267 8.33332 12Z" fill="#8A8A8A"/>
<path d="M8.99999 9.33331C8.99999 9.61331 8.77332 9.83331 8.49332 9.83331L5.15999 9.79998C4.88666 9.79998 4.66666 9.57331 4.66666 9.29998C4.66666 9.29998 4.66666 9.29998 4.66666 9.29331C4.66666 9.01998 4.89332 8.79331 5.17332 8.79998L8.50666 8.83331C8.77999 8.83331 8.99999 9.05998 8.99999 9.33331Z" fill="#8A8A8A"/>
<path d="M7.66666 6.66669C7.66666 6.94002 7.43999 7.16669 7.16666 7.16669L5.16666 7.16669C4.89332 7.16669 4.66666 6.94002 4.66666 6.66669C4.66666 6.39335 4.89332 6.16669 5.16666 6.16669H7.16666C7.43999 6.16669 7.66666 6.39335 7.66666 6.66669Z" fill="#8A8A8A"/>
</svg>
