<svg width="37" height="37" viewBox="0 0 37 37" fill="none" xmlns="http://www.w3.org/2000/svg">
<g clip-path="url(#clip0_3506_12769)">
<path d="M18.5599 36.6432C22.7631 36.6432 26.1703 33.2359 26.1703 29.0328C26.1703 24.8297 22.7631 21.4224 18.5599 21.4224C14.3568 21.4224 10.9495 24.8297 10.9495 29.0328C10.9495 33.2359 14.3568 36.6432 18.5599 36.6432Z" fill="white"/>
<path d="M26.1702 29.0338C26.1702 33.2364 22.7624 36.6437 18.5592 36.6437L26.1702 29.0338Z" fill="white"/>
<path d="M22.8933 24.9872C22.8933 27.3806 20.9524 29.3221 18.5584 29.3221C16.1643 29.3221 14.2234 27.3806 14.2234 24.9872V4.56437C14.2234 2.16975 16.1643 0.229416 18.5584 0.229416C20.9524 0.229416 22.8933 2.16975 22.8933 4.56437V24.9872Z" fill="white"/>
<path d="M14.2234 15.0156V4.56437C14.2234 2.16975 16.1643 0.229416 18.5584 0.229416" fill="white"/>
<path d="M19.2098 28.671C19.2098 29.0299 18.9185 29.3212 18.5596 29.3212C18.2006 29.3212 17.9093 29.0299 17.9093 28.671V4.53973C17.9093 4.18076 18.2006 3.88945 18.5596 3.88945C18.9185 3.88945 19.2098 4.18076 19.2098 4.53973V28.671Z" fill="#B23948"/>
<path d="M22.0261 8.17761C22.0261 8.25796 21.9608 8.32209 21.8816 8.32209H20.5326C20.4522 8.32209 20.3881 8.25796 20.3881 8.17761C20.3881 8.09726 20.4522 8.03313 20.5326 8.03313H21.8816C21.9608 8.03313 22.0261 8.09726 22.0261 8.17761Z" fill="white"/>
<path d="M22.0252 9.2982C22.0252 9.37855 21.9599 9.44268 21.8807 9.44268H21.6876C21.6073 9.44268 21.5432 9.37855 21.5432 9.2982C21.5432 9.21785 21.6073 9.15372 21.6876 9.15372H21.8807C21.9599 9.15372 22.0252 9.21792 22.0252 9.2982Z" fill="white"/>
<path d="M22.0261 10.4895C22.0261 10.5698 21.9608 10.634 21.8816 10.634H20.5326C20.4522 10.634 20.3881 10.5698 20.3881 10.4895C20.3881 10.4091 20.4522 10.345 20.5326 10.345H21.8816C21.9608 10.3449 22.0261 10.4091 22.0261 10.4895Z" fill="white"/>
<path d="M22.0252 11.6101C22.0252 11.6904 21.9599 11.7546 21.8807 11.7546H21.6876C21.6073 11.7546 21.5432 11.6904 21.5432 11.6101C21.5432 11.5297 21.6073 11.4656 21.6876 11.4656H21.8807C21.9599 11.4656 22.0252 11.5297 22.0252 11.6101Z" fill="white"/>
<path d="M22.0261 12.8013C22.0261 12.8817 21.9608 12.9458 21.8816 12.9458H20.5326C20.4522 12.9458 20.3881 12.8817 20.3881 12.8013C20.3881 12.721 20.4522 12.6569 20.5326 12.6569H21.8816C21.9608 12.6569 22.0261 12.721 22.0261 12.8013Z" fill="white"/>
<path d="M22.0252 13.9219C22.0252 14.0023 21.9599 14.0664 21.8807 14.0664H21.6876C21.6073 14.0664 21.5432 14.0023 21.5432 13.9219C21.5432 13.8416 21.6073 13.7775 21.6876 13.7775H21.8807C21.9599 13.7775 22.0252 13.8416 22.0252 13.9219Z" fill="white"/>
<path d="M22.0261 15.1132C22.0261 15.1936 21.9608 15.2577 21.8816 15.2577H20.5326C20.4522 15.2577 20.3881 15.1936 20.3881 15.1132C20.3881 15.0329 20.4522 14.9687 20.5326 14.9687H21.8816C21.9608 14.9687 22.0261 15.0329 22.0261 15.1132Z" fill="white"/>
<path d="M22.0252 16.2338C22.0252 16.3142 21.9599 16.3783 21.8807 16.3783H21.6876C21.6073 16.3783 21.5432 16.3142 21.5432 16.2338C21.5432 16.1535 21.6073 16.0893 21.6876 16.0893H21.8807C21.9599 16.0893 22.0252 16.1535 22.0252 16.2338Z" fill="white"/>
<path d="M22.0261 17.4251C22.0261 17.5054 21.9608 17.5696 21.8816 17.5696H20.5326C20.4522 17.5696 20.3881 17.5054 20.3881 17.4251C20.3881 17.3447 20.4522 17.2806 20.5326 17.2806H21.8816C21.9608 17.2805 22.0261 17.3447 22.0261 17.4251Z" fill="white"/>
<path d="M22.0252 18.5457C22.0252 18.626 21.9599 18.6901 21.8807 18.6901H21.6876C21.6073 18.6901 21.5432 18.626 21.5432 18.5457C21.5432 18.4653 21.6073 18.4012 21.6876 18.4012H21.8807C21.9599 18.4012 22.0252 18.4653 22.0252 18.5457Z" fill="white"/>
<path d="M22.0261 19.7369C22.0261 19.8173 21.9608 19.8814 21.8816 19.8814H20.5326C20.4522 19.8814 20.3881 19.8173 20.3881 19.7369C20.3881 19.6566 20.4522 19.5925 20.5326 19.5925H21.8816C21.9608 19.5925 22.0261 19.6567 22.0261 19.7369Z" fill="white"/>
<path d="M22.0252 20.8575C22.0252 20.9379 21.9599 21.002 21.8807 21.002H21.6876C21.6073 21.002 21.5432 20.9379 21.5432 20.8575C21.5432 20.7772 21.6073 20.7131 21.6876 20.7131H21.8807C21.9599 20.7131 22.0252 20.7772 22.0252 20.8575Z" fill="white"/>
<path d="M18.5581 31.2001C19.7551 31.2001 20.7255 30.2297 20.7255 29.0327C20.7255 27.8356 19.7551 26.8652 18.5581 26.8652C17.361 26.8652 16.3906 27.8356 16.3906 29.0327C16.3906 30.2297 17.361 31.2001 18.5581 31.2001Z" fill="#C8192D"/>
<path d="M20.7255 29.0342C20.7255 30.2306 19.7551 31.2016 18.5581 31.2016C17.361 31.2016 16.3906 30.2306 16.3906 29.0342" fill="#C8192D"/>
</g>
<defs>
<clipPath id="clip0_3506_12769">
<rect width="36.4141" height="36.4141" fill="white" transform="translate(0.351562 0.228516)"/>
</clipPath>
</defs>
</svg>
