<svg width="28" height="28" viewBox="0 0 28 28" fill="none" xmlns="http://www.w3.org/2000/svg">
<g clip-path="url(#clip0_3506_12742)">
<path d="M5.91612 20.8307V6.78692C5.91612 6.63438 5.94236 6.48424 5.96307 6.33714L1.93714 7.64767C1.0033 7.95097 0.491298 8.96337 0.794695 9.89713L5.13625 23.2535C5.38064 24.0058 6.08589 24.4867 6.8389 24.4867C7.02054 24.4867 7.20567 24.4586 7.38722 24.3997L8.52941 24.0238C7.05071 23.7285 5.91612 22.3922 5.91612 20.8307Z" fill="white"/>
<path d="M8.83742 18.7353L13.177 5.38172C13.2208 5.24676 13.2732 5.08341 13.3329 4.99415H9.15786C8.176 4.99415 7.34293 5.80482 7.34293 6.78669V20.8304C7.34293 21.8123 8.176 22.6678 9.15786 22.6678H10.5833C9.1019 21.9538 8.32533 20.3114 8.83742 18.7353Z" fill="white"/>
<path d="M25.9544 7.64805L16.7861 4.66915C16.6045 4.61006 16.4199 4.58212 16.2382 4.58212C15.4852 4.58212 14.7809 5.06297 14.5365 5.81517L10.197 19.1715C9.89356 20.1055 10.4093 21.1177 11.3432 21.4212L20.5114 24.4001C20.6929 24.459 20.8775 24.4871 21.0593 24.4871C21.8123 24.4871 22.5165 24.0061 22.7609 23.2539L27.1006 9.89751C27.404 8.96375 26.8883 7.95135 25.9544 7.64805ZM17.3846 18.0908C13.061 12.8407 15.5797 10.2315 17.1738 10.2387C18.5171 10.2451 19.064 11.2083 19.2973 12.1995C20.0157 11.4104 21.0769 11.076 22.1675 11.8602C23.4617 12.7906 23.9677 16.3814 17.3846 18.0908Z" fill="white"/>
</g>
<defs>
<clipPath id="clip0_3506_12742">
<rect width="26.4804" height="26.4804" fill="white" transform="translate(0.708984 0.591797)"/>
</clipPath>
</defs>
</svg>
