<svg width="17" height="16" viewBox="0 0 17 16" fill="none" xmlns="http://www.w3.org/2000/svg">
<path d="M10.66 15.1666H6.33999C5.07999 15.1666 4.15999 14.64 3.80666 13.7333C3.43999 12.7866 3.77999 11.6133 4.65999 10.82L7.75333 7.99998L4.65999 5.17998C3.77999 4.38665 3.43999 3.21331 3.80666 2.26665C4.15999 1.35331 5.07999 0.833313 6.33999 0.833313H10.66C11.92 0.833313 12.84 1.35998 13.1933 2.26665C13.56 3.21331 13.22 4.38665 12.34 5.17998L9.24666 7.99998L12.3467 10.82C13.22 11.6133 13.5667 12.7866 13.2 13.7333C12.84 14.64 11.92 15.1666 10.66 15.1666ZM8.49999 8.67331L5.33333 11.5533C4.77333 12.0666 4.52666 12.8133 4.73999 13.3666C4.93999 13.88 5.50666 14.1666 6.33999 14.1666H10.66C11.4933 14.1666 12.06 13.8866 12.26 13.3666C12.4733 12.8133 12.2333 12.0666 11.6667 11.5533L8.49999 8.67331ZM6.33999 1.83331C5.50666 1.83331 4.93999 2.11331 4.73999 2.63331C4.52666 3.18665 4.76666 3.93331 5.33333 4.44665L8.49999 7.32665L11.6667 4.44665C12.2267 3.93331 12.4733 3.18665 12.26 2.63331C12.06 2.11998 11.4933 1.83331 10.66 1.83331H6.33999Z" fill="#8A8A8A"/>
</svg>
