<svg width="15" height="14" viewBox="0 0 15 14" fill="none" xmlns="http://www.w3.org/2000/svg">
<path d="M9.5 4.66666C10.8333 4.66666 13.196 4.62933 13.4863 6.88C13.639 8.064 12.5793 9.89133 7.5 13.3333" stroke="#8A8A8A" stroke-width="1.33333" stroke-linecap="round" stroke-linejoin="round"/>
<path d="M4.83333 2.66667C4.83333 2.84348 4.90357 3.01305 5.02859 3.13807C5.15361 3.2631 5.32318 3.33333 5.5 3.33333C5.67681 3.33333 5.84637 3.2631 5.9714 3.13807C6.09642 3.01305 6.16666 2.84348 6.16666 2.66667H4.83333ZM0.833328 2.66667C0.833328 2.84348 0.903566 3.01305 1.02859 3.13807C1.15361 3.2631 1.32318 3.33333 1.49999 3.33333C1.67681 3.33333 1.84638 3.2631 1.9714 3.13807C2.09642 3.01305 2.16666 2.84348 2.16666 2.66667H0.833328ZM2.16666 2.66667C2.16666 2.31304 2.30714 1.97391 2.55719 1.72386C2.80723 1.47381 3.14637 1.33333 3.49999 1.33333V0C2.79275 0 2.11447 0.280952 1.61438 0.781049C1.11428 1.28115 0.833328 1.95942 0.833328 2.66667H2.16666ZM3.49999 1.33333C3.85362 1.33333 4.19276 1.47381 4.4428 1.72386C4.69285 1.97391 4.83333 2.31304 4.83333 2.66667H6.16666C6.16666 1.95942 5.88571 1.28115 5.38561 0.781049C4.88552 0.280952 4.20724 0 3.49999 0V1.33333Z" fill="#8A8A8A"/>
<path d="M8.83333 2.66667C8.83333 2.84348 8.90357 3.01305 9.02859 3.13807C9.15361 3.2631 9.32318 3.33333 9.5 3.33333C9.67681 3.33333 9.84637 3.2631 9.9714 3.13807C10.0964 3.01305 10.1667 2.84348 10.1667 2.66667H8.83333ZM4.83333 2.66667C4.83333 2.84348 4.90357 3.01305 5.02859 3.13807C5.15361 3.2631 5.32318 3.33333 5.49999 3.33333C5.67681 3.33333 5.84638 3.2631 5.9714 3.13807C6.09642 3.01305 6.16666 2.84348 6.16666 2.66667H4.83333ZM6.16666 2.66667C6.16666 2.31304 6.30714 1.97391 6.55719 1.72386C6.80723 1.47381 7.14637 1.33333 7.49999 1.33333V0C6.79275 0 6.11447 0.280952 5.61438 0.781049C5.11428 1.28115 4.83333 1.95942 4.83333 2.66667H6.16666ZM7.49999 1.33333C7.85362 1.33333 8.19276 1.47381 8.4428 1.72386C8.69285 1.97391 8.83333 2.31304 8.83333 2.66667H10.1667C10.1667 1.95942 9.88571 1.28115 9.38561 0.781049C8.88552 0.280952 8.20724 0 7.49999 0V1.33333Z" fill="#8A8A8A"/>
<path d="M1.5 2.66669V8.66669M5.5 2.66669V8.66669" stroke="#8A8A8A" stroke-width="1.33333" stroke-linecap="round" stroke-linejoin="round"/>
<path d="M9.5 2.66669V8.66669C9.5 10.3334 10.3333 12 13.5 12" stroke="#8A8A8A" stroke-width="1.33333" stroke-linecap="round"/>
</svg>
