<svg width="17" height="16" viewBox="0 0 17 16" fill="none" xmlns="http://www.w3.org/2000/svg">
<path d="M11.9533 12.5C10.8133 12.5 9.45334 12.0667 9.45334 10V6C9.45334 3.93333 10.8133 3.5 11.9533 3.5C13.0933 3.5 14.4533 3.93333 14.4533 6V10C14.4533 12.0667 13.0933 12.5 11.9533 12.5ZM11.9533 4.5C10.8733 4.5 10.4533 4.92 10.4533 6V10C10.4533 11.08 10.8733 11.5 11.9533 11.5C13.0333 11.5 13.4533 11.08 13.4533 10V6C13.4533 4.92 13.0333 4.5 11.9533 4.5Z" fill="#8A8A8A"/>
<path d="M5.04666 12.5C3.90666 12.5 2.54666 12.0667 2.54666 10V6C2.54666 3.93333 3.90666 3.5 5.04666 3.5C6.18666 3.5 7.54666 3.93333 7.54666 6V10C7.54666 12.0667 6.18666 12.5 5.04666 12.5ZM5.04666 4.5C3.96666 4.5 3.54666 4.92 3.54666 6V10C3.54666 11.08 3.96666 11.5 5.04666 11.5C6.12666 11.5 6.54666 11.08 6.54666 10V6C6.54666 4.92 6.12666 4.5 5.04666 4.5Z" fill="#8A8A8A"/>
<path d="M9.95333 8.5H7.04666C6.77333 8.5 6.54666 8.27333 6.54666 8C6.54666 7.72667 6.77333 7.5 7.04666 7.5H9.95333C10.2267 7.5 10.4533 7.72667 10.4533 8C10.4533 8.27333 10.2333 8.5 9.95333 8.5Z" fill="#8A8A8A"/>
<path d="M15.5 10.1666C15.2267 10.1666 15 9.93998 15 9.66665V6.33331C15 6.05998 15.2267 5.83331 15.5 5.83331C15.7733 5.83331 16 6.05998 16 6.33331V9.66665C16 9.93998 15.7733 10.1666 15.5 10.1666Z" fill="#8A8A8A"/>
<path d="M1.5 10.1666C1.22667 10.1666 1 9.93998 1 9.66665V6.33331C1 6.05998 1.22667 5.83331 1.5 5.83331C1.77333 5.83331 2 6.05998 2 6.33331V9.66665C2 9.93998 1.77333 10.1666 1.5 10.1666Z" fill="#8A8A8A"/>
</svg>
