<svg width="27" height="21" viewBox="0 0 27 21" fill="none" xmlns="http://www.w3.org/2000/svg">
<path id="Vector" d="M23.2104 2.67899C22.6223 2.1467 21.9241 1.72445 21.1557 1.43636C20.3872 1.14828 19.5636 1 18.7317 1C17.8999 1 17.0763 1.14828 16.3078 1.43636C15.5394 1.72445 14.8412 2.1467 14.2531 2.67899L13.0327 3.78315L11.8123 2.67899C10.6245 1.60431 9.01353 1.00056 7.33372 1.00056C5.65391 1.00056 4.04291 1.60431 2.8551 2.67899C1.6673 3.75366 1 5.21124 1 6.73107C1 8.25089 1.6673 9.70847 2.8551 10.7832L4.0755 11.8873L13.0327 19.9915L21.99 11.8873L23.2104 10.7832C23.7987 10.2511 24.2654 9.61942 24.5838 8.92415C24.9022 8.22888 25.0661 7.48366 25.0661 6.73107C25.0661 5.97848 24.9022 5.23326 24.5838 4.53799C24.2654 3.84272 23.7987 3.21102 23.2104 2.67899V2.67899Z" stroke="white" stroke-width="2" stroke-linecap="round" stroke-linejoin="round"/>
</svg>
