<svg width="19" height="16" viewBox="0 0 19 16" fill="none" xmlns="http://www.w3.org/2000/svg">
<g id="heart" clip-path="url(#clip0_3702_17939)">
<path id="Vector" d="M16.1453 3.07333C15.7689 2.73267 15.3221 2.46243 14.8303 2.27805C14.3385 2.09368 13.8113 1.99878 13.279 1.99878C12.7466 1.99878 12.2194 2.09368 11.7276 2.27805C11.2358 2.46243 10.789 2.73267 10.4126 3.07333L9.63158 3.78L8.85053 3.07333C8.09034 2.38553 7.05929 1.99914 5.98422 1.99914C4.90914 1.99914 3.87809 2.38553 3.1179 3.07333C2.35771 3.76112 1.93063 4.69397 1.93063 5.66666C1.93063 6.63935 2.35771 7.5722 3.1179 8.26L3.89895 8.96666L9.63158 14.1533L15.3642 8.96666L16.1453 8.26C16.5218 7.91949 16.8205 7.51521 17.0243 7.07023C17.228 6.62526 17.3329 6.14832 17.3329 5.66666C17.3329 5.185 17.228 4.70807 17.0243 4.26309C16.8205 3.81812 16.5218 3.41383 16.1453 3.07333Z" fill="#FF2101" stroke="#FF2101" stroke-width="2" stroke-linecap="round" stroke-linejoin="round"/>
</g>
<defs>
<clipPath id="clip0_3702_17939">
<rect width="17.6842" height="16" fill="white" transform="translate(0.78949)"/>
</clipPath>
</defs>
</svg>
