<svg width="16" height="16" viewBox="0 0 16 16" fill="none" xmlns="http://www.w3.org/2000/svg">
<g id="Group 555">
<path id="Path 740" d="M10.6667 0H5.33334C3.91868 0.00238826 2.56268 0.608074 1.56283 1.68417C0.562972 2.76027 0.000929449 4.21889 5.61357e-06 5.74002V7.25526C-0.00161584 8.45664 0.348062 9.62817 0.999585 10.6042C1.65111 11.5801 2.5715 12.3112 3.63059 12.6939C3.36007 13.1967 2.991 13.9806 2.46047 15.205C2.41541 15.3086 2.40103 15.4246 2.41925 15.5373C2.43748 15.6499 2.48744 15.7539 2.56238 15.835C2.63733 15.9162 2.73364 15.9706 2.8383 15.991C2.94296 16.0114 3.05091 15.9968 3.14758 15.9491L9.15265 12.9953H10.6667C12.0813 12.9929 13.4373 12.3872 14.4372 11.3111C15.437 10.235 15.9991 8.77639 16 7.25526V5.74002C15.9991 4.21889 15.437 2.76027 14.4372 1.68417C13.4373 0.608074 12.0813 0.00238826 10.6667 0ZM14.9606 7.25526C14.9599 8.48003 14.5074 9.65449 13.7024 10.521C12.8974 11.3876 11.8057 11.8754 10.6667 11.8776H9.03941C8.96483 11.8778 8.89116 11.8952 8.82342 11.9287L4.02971 14.2865C4.24979 13.7869 4.49889 13.3027 4.77554 12.8367C4.86601 12.7778 4.93762 12.6906 4.98081 12.5867C5.024 12.4829 5.03673 12.3674 5.01729 12.2556C4.99784 12.1438 4.94716 12.041 4.87199 11.961C4.79683 11.881 4.70075 11.8275 4.59659 11.8077C3.5998 11.6215 2.69627 11.0625 2.04553 10.2295C1.39478 9.39656 1.03869 8.34313 1.04011 7.25526V5.74002C1.04085 4.51524 1.49332 3.34078 2.29829 2.47424C3.10326 1.6077 4.19499 1.11983 5.33403 1.11764H10.6674C11.8064 1.11983 12.8981 1.6077 13.7031 2.47424C14.5081 3.34078 14.9606 4.51524 14.9613 5.74002V7.25526H14.9606Z" fill="#8A8A8A"/>
</g>
</svg>
