<svg width="17" height="17" viewBox="0 0 17 17" fill="none" xmlns="http://www.w3.org/2000/svg">
<g id="Frame" clip-path="url(#clip0_3695_17673)">
<path id="Vector" fill-rule="evenodd" clip-rule="evenodd" d="M7.79163 12.75V4.25H9.20829V12.75H7.79163Z" fill="white"/>
<path id="Vector_2" fill-rule="evenodd" clip-rule="evenodd" d="M12.75 9.20835H4.25V7.79169H12.75V9.20835Z" fill="white"/>
<path id="Vector_3" fill-rule="evenodd" clip-rule="evenodd" d="M5.34054 1.37569C5.72886 1.20324 6.13394 1.06157 6.55265 0.953796L6.90577 2.32575C6.56375 2.41378 6.23284 2.52951 5.91552 2.67042L5.34054 1.37569ZM1.64016 4.8022C2.04938 4.04449 2.58021 3.36266 3.20635 2.78266L4.16906 3.82196C3.65598 4.29724 3.22136 4.85564 2.88665 5.4754L1.64016 4.8022ZM0.708374 8.49995C0.708374 8.06532 0.744032 7.63848 0.812726 7.22233L2.21048 7.45304C2.15432 7.79325 2.12504 8.14288 2.12504 8.49995C2.12504 8.85703 2.15432 9.20666 2.21048 9.54687L0.812726 9.77758C0.744032 9.36143 0.708374 8.93459 0.708374 8.49995ZM3.20635 14.2173C2.58021 13.6372 2.04938 12.9554 1.64016 12.1977L2.88665 11.5245C3.22136 12.1443 3.65598 12.7026 4.16906 13.1779L3.20635 14.2173ZM6.55265 16.0461C6.13394 15.9384 5.72886 15.7966 5.34054 15.6242L5.91551 14.3295C6.23284 14.4704 6.56375 14.5861 6.90577 14.6741L6.55265 16.0461Z" fill="white"/>
<path id="Vector_4" fill-rule="evenodd" clip-rule="evenodd" d="M14.875 8.49998C14.875 4.97917 12.0208 2.12498 8.5 2.12498V0.708313C12.8032 0.708313 16.2917 4.19676 16.2917 8.49998C16.2917 12.8032 12.8032 16.2916 8.5 16.2916V14.875C12.0208 14.875 14.875 12.0208 14.875 8.49998Z" fill="white"/>
</g>
<defs>
<clipPath id="clip0_3695_17673">
<rect width="17" height="17" fill="white"/>
</clipPath>
</defs>
</svg>
