<svg width="64" height="64" viewBox="0 0 64 64" fill="none" xmlns="http://www.w3.org/2000/svg">
<g id="Frame">
<g id="Layer 2">
<path id="Vector" d="M33.76 32.94L14 52.68C13.6174 53.0077 13.1253 53.1789 12.6219 53.1594C12.1186 53.14 11.6411 52.9313 11.2849 52.5751C10.9287 52.2189 10.72 51.7415 10.7006 51.2381C10.6812 50.7348 10.8524 50.2426 11.18 49.86L29.3 31.74L11.7 14.14C11.3275 13.7653 11.1184 13.2584 11.1184 12.73C11.1184 12.2016 11.3275 11.6947 11.7 11.32C11.8859 11.1325 12.1071 10.9838 12.3509 10.8822C12.5946 10.7807 12.856 10.7284 13.12 10.7284C13.384 10.7284 13.6455 10.7807 13.8892 10.8822C14.1329 10.9838 14.3541 11.1325 14.54 11.32L33.76 30.54C34.0776 30.8586 34.2559 31.2902 34.2559 31.74C34.2559 32.1899 34.0776 32.6214 33.76 32.94Z" fill="white" fill-opacity="0.58"/>
<path id="Vector_2" d="M52.92 32.94L33.16 52.68C32.7774 53.0077 32.2852 53.1789 31.7819 53.1594C31.2785 53.14 30.8011 52.9313 30.4449 52.5751C30.0887 52.2189 29.88 51.7415 29.8606 51.2381C29.8411 50.7348 30.0123 50.2426 30.34 49.86L48.46 31.74L30.86 14.14C30.4875 13.7653 30.2784 13.2584 30.2784 12.73C30.2784 12.2016 30.4875 11.6947 30.86 11.32C31.2347 10.9475 31.7416 10.7384 32.27 10.7384C32.7984 10.7384 33.3053 10.9475 33.68 11.32L52.92 30.54C53.2375 30.8586 53.4158 31.2902 53.4158 31.74C53.4158 32.1899 53.2375 32.6214 52.92 32.94Z" fill="white" fill-opacity="0.58"/>
</g>
</g>
</svg>
