<svg width="64" height="64" viewBox="0 0 64 64" fill="none" xmlns="http://www.w3.org/2000/svg">
<g id="Frame">
<g id="Layer 2">
<path id="Vector" d="M30.24 31.06L50 11.32C50.3826 10.9923 50.8747 10.8211 51.3781 10.8406C51.8814 10.86 52.3589 11.0687 52.7151 11.4249C53.0713 11.7811 53.28 12.2585 53.2994 12.7619C53.3188 13.2652 53.1476 13.7574 52.82 14.14L34.7 32.26L52.3 49.86C52.6725 50.2347 52.8816 50.7416 52.8816 51.27C52.8816 51.7984 52.6725 52.3053 52.3 52.68C52.1141 52.8675 51.8929 53.0162 51.6491 53.1178C51.4054 53.2193 51.144 53.2716 50.88 53.2716C50.616 53.2716 50.3545 53.2193 50.1108 53.1178C49.8671 53.0162 49.6459 52.8675 49.46 52.68L30.24 33.46C29.9224 33.1414 29.7441 32.7098 29.7441 32.26C29.7441 31.8101 29.9224 31.3786 30.24 31.06Z" fill="white" fill-opacity="0.58"/>
<path id="Vector_2" d="M11.0799 31.06L30.8399 11.32C31.2225 10.9923 31.7147 10.8211 32.2181 10.8406C32.7214 10.86 33.1989 11.0687 33.5551 11.4249C33.9113 11.7811 34.1199 12.2585 34.1394 12.7619C34.1588 13.2652 33.9876 13.7574 33.6599 14.14L15.5399 32.26L33.1399 49.86C33.5124 50.2347 33.7215 50.7416 33.7215 51.27C33.7215 51.7984 33.5124 52.3053 33.1399 52.68C32.7652 53.0525 32.2583 53.2616 31.7299 53.2616C31.2016 53.2616 30.6947 53.0525 30.3199 52.68L11.0799 33.46C10.7624 33.1414 10.5841 32.7098 10.5841 32.26C10.5841 31.8101 10.7624 31.3786 11.0799 31.06Z" fill="white" fill-opacity="0.58"/>
</g>
</g>
</svg>
