<svg width="17" height="17" viewBox="0 0 17 17" fill="none" xmlns="http://www.w3.org/2000/svg">
<g id="Frame" clip-path="url(#clip0_3695_17678)">
<g id="Group">
<path id="Vector" d="M15.9375 9.5625C15.7979 9.56242 15.6597 9.58985 15.5308 9.64322C15.4019 9.69658 15.2847 9.77484 15.186 9.87352C15.0873 9.9722 15.0091 10.0894 14.9557 10.2183C14.9023 10.3472 14.8749 10.4854 14.875 10.625V13.8125H2.125V10.625C2.125 10.3432 2.01306 10.073 1.8138 9.8737C1.61454 9.67444 1.34429 9.5625 1.0625 9.5625C0.780708 9.5625 0.510457 9.67444 0.311199 9.8737C0.111942 10.073 1.708e-07 10.3432 1.708e-07 10.625V14.875C-7.89758e-05 15.0146 0.0273494 15.1528 0.080717 15.2817C0.134085 15.4106 0.212345 15.5278 0.311023 15.6265C0.409701 15.7252 0.526861 15.8034 0.655805 15.8568C0.78475 15.9102 0.922948 15.9376 1.0625 15.9375H15.9375C16.0771 15.9376 16.2153 15.9102 16.3442 15.8568C16.4731 15.8034 16.5903 15.7252 16.689 15.6265C16.7877 15.5278 16.8659 15.4106 16.9193 15.2817C16.9727 15.1528 17.0001 15.0146 17 14.875V10.625C17.0001 10.4854 16.9727 10.3472 16.9193 10.2183C16.8659 10.0894 16.7877 9.9722 16.689 9.87352C16.5903 9.77484 16.4731 9.69658 16.3442 9.64322C16.2153 9.58985 16.0771 9.56242 15.9375 9.5625Z" fill="white"/>
<path id="Vector_2" d="M9.25122 1.37378C9.15259 1.27509 9.03548 1.19681 8.90658 1.1434C8.77768 1.08999 8.63952 1.0625 8.5 1.0625C8.36047 1.0625 8.22232 1.08999 8.09342 1.1434C7.96452 1.19681 7.84741 1.27509 7.74878 1.37378L4.56128 4.56128C4.36295 4.76071 4.25181 5.03064 4.2522 5.31189C4.25259 5.59314 4.36449 5.86276 4.56336 6.06164C4.76224 6.26051 5.03186 6.37241 5.31311 6.3728C5.59436 6.37319 5.86429 6.26204 6.06372 6.06372L7.4375 4.68995L7.4375 10.625C7.4375 10.9068 7.54944 11.177 7.7487 11.3763C7.94796 11.5756 8.21821 11.6875 8.5 11.6875C8.78179 11.6875 9.05204 11.5756 9.2513 11.3763C9.45056 11.177 9.5625 10.9068 9.5625 10.625V4.68995L10.9363 6.06372C11.1357 6.26204 11.4056 6.37319 11.6869 6.3728C11.9681 6.37241 12.2378 6.26051 12.4366 6.06164C12.6355 5.86276 12.7474 5.59314 12.7478 5.31189C12.7482 5.03064 12.637 4.76071 12.4387 4.56128L9.25122 1.37378Z" fill="white"/>
</g>
</g>
<defs>
<clipPath id="clip0_3695_17678">
<rect width="17" height="17" fill="white"/>
</clipPath>
</defs>
</svg>
